<svg width="30" height="30" viewBox="0 0 30 30" fill="none" xmlns="http://www.w3.org/2000/svg">
<path d="M24.0002 13.92C24.0002 12.66 22.9802 12 21.6002 12H17.5802C17.8802 10.92 18.0002 9.90005 18.0002 9.00005C18.0002 5.52005 17.0402 4.80005 16.2002 4.80005C15.6602 4.80005 15.2402 4.86005 14.7002 5.16005C14.5202 5.28005 14.4602 5.40005 14.4002 5.58005L13.8002 8.82005C13.1402 10.5 11.5202 12 10.2002 13.02V21.6C10.6802 21.6 11.1602 21.8401 11.7602 22.1401C12.4202 22.4401 13.0802 22.8 13.8002 22.8H19.5002C20.7002 22.8 21.6002 21.84 21.6002 21C21.6002 20.82 21.6002 20.7 21.5402 20.58C22.2602 20.28 22.8002 19.68 22.8002 18.9C22.8002 18.54 22.7402 18.24 22.6202 17.94C23.1002 17.64 23.5202 17.1 23.5202 16.5C23.5202 16.14 23.3402 15.78 23.1602 15.48C23.6402 15.12 24.0002 14.52 24.0002 13.92V13.92ZM22.7402 13.92C22.7402 14.7 21.9602 14.76 21.8402 15.12C21.7202 15.54 22.3202 15.66 22.3202 16.38C22.3202 17.1 21.4202 17.1 21.3002 17.52C21.1802 18 21.6002 18.12 21.6002 18.84V18.96C21.4802 19.56 20.5802 19.62 20.4002 19.86C20.2202 20.16 20.4002 20.2801 20.4002 20.9401C20.4002 21.3001 19.9802 21.5401 19.5002 21.5401H13.8002C13.3202 21.5401 12.8402 21.3 12.2402 21C11.7602 20.76 11.2802 20.52 10.8002 20.4V14.1C12.3002 12.96 14.2202 11.28 14.9402 9.18005V9.06005L15.4802 6.06005C15.7202 6.00005 15.9002 6.00005 16.2002 6.00005C16.3202 6.00005 16.8002 6.72005 16.8002 9.00005C16.8002 9.90005 16.6202 10.86 16.3202 12H16.2002C15.8402 12 15.6002 12.24 15.6002 12.6C15.6002 12.96 15.8402 13.2 16.2002 13.2H21.6002C22.2002 13.2 22.7402 13.5 22.7402 13.92Z" fill="#1967D2" fill-opacity="0.9"/>
<path d="M9.5998 22.8H5.9998C5.3398 22.8 4.7998 22.26 4.7998 21.6V13.2C4.7998 12.54 5.3398 12 5.9998 12H9.5998C10.2598 12 10.7998 12.54 10.7998 13.2V21.6C10.7998 22.26 10.2598 22.8 9.5998 22.8ZM5.9998 13.2V21.6H9.5998V13.2H5.9998Z" fill="#1967D2" fill-opacity="0.9"/>
</svg>
