<svg width="30" height="30" viewBox="0 0 30 30" fill="none" xmlns="http://www.w3.org/2000/svg">
<path d="M26.6046 10.3447L19.1661 9.26368L15.8409 2.52247C15.7501 2.3379 15.6007 2.18849 15.4161 2.09767C14.9532 1.86915 14.3907 2.05958 14.1593 2.52247L10.8341 9.26368L3.39561 10.3447C3.19053 10.374 3.00303 10.4707 2.85948 10.6172C2.68593 10.7956 2.59029 11.0356 2.59359 11.2844C2.59688 11.5333 2.69884 11.7706 2.87705 11.9443L8.25889 17.1914L6.98741 24.6006C6.95759 24.773 6.97666 24.9502 7.04246 25.1123C7.10826 25.2743 7.21815 25.4147 7.35968 25.5175C7.5012 25.6203 7.6687 25.6814 7.84317 25.6938C8.01764 25.7063 8.1921 25.6696 8.34678 25.5879L15.0001 22.0899L21.6534 25.5879C21.8351 25.6846 22.046 25.7168 22.2481 25.6817C22.7579 25.5938 23.1007 25.1104 23.0128 24.6006L21.7413 17.1914L27.1231 11.9443C27.2696 11.8008 27.3663 11.6133 27.3956 11.4082C27.4747 10.8955 27.1173 10.4209 26.6046 10.3447V10.3447Z" fill="hsl(239, 100%, 64%)" fill-opacity="0.9"/>
</svg>
