<svg width="29" height="30" viewBox="0 0 29 30" fill="none" xmlns="http://www.w3.org/2000/svg">
<g clip-path="url(#clip0_163_8779)">
<path d="M2.66362 16.8145L12.341 28.4274C13.1878 29.3952 14.1757 29.879 15.3048 29.879C16.3128 29.879 17.1798 29.5766 17.9056 28.9718L26.3128 21.8952C27.1193 21.1693 27.583 20.2621 27.7039 19.1734C27.8249 18.1653 27.5225 17.1774 26.7967 16.2097L17.1193 4.59676C16.0709 3.2258 14.6999 2.35886 13.0064 1.99596L4.59911 0.0604737C3.79265 -0.181462 3.02652 -1.01187e-05 2.30072 0.604829L1.27249 1.51209C0.667654 1.95563 0.365234 2.68144 0.365234 3.68951L0.849105 12.3387C1.05072 14.0726 1.65556 15.5645 2.66362 16.8145ZM4.11523 2.54031L12.6435 4.59676C13.5306 4.79838 14.4177 5.34273 15.3048 6.22983L24.9822 17.8427C25.3047 18.1653 25.4056 18.5282 25.2846 18.9314C25.2846 19.1734 25.1031 19.5161 24.7402 19.9597L16.333 27.0363C16.0507 27.2782 15.708 27.3891 15.3048 27.3689C14.9015 27.3488 14.5991 27.1976 14.3975 26.9153L4.72007 15.3024C3.95394 14.3347 3.57088 13.3468 3.57088 12.3387L2.96604 3.44757L4.11523 2.54031ZM7.56281 6.77418C7.56281 7.13709 7.44185 7.43951 7.19991 7.68144C6.95798 7.92338 6.65556 8.04434 6.29265 8.04434C5.92975 8.04434 5.62733 7.92338 5.3854 7.68144C5.14346 7.43951 5.02249 7.13709 5.02249 6.77418C5.02249 6.41128 5.14346 6.10886 5.3854 5.86693C5.62733 5.62499 5.92975 5.50402 6.29265 5.50402C6.65556 5.50402 6.95798 5.62499 7.19991 5.86693C7.44185 6.10886 7.56281 6.41128 7.56281 6.77418ZM8.22814 15.7863L20.083 19.5363H20.5064C21.0709 19.5363 21.4943 19.2339 21.7765 18.629C21.8975 18.3064 21.8773 17.9839 21.716 17.6613C21.5547 17.3387 21.3128 17.1169 20.9902 16.996L9.1354 13.246C8.81281 13.0847 8.48015 13.0847 8.13741 13.246C7.79467 13.4072 7.56281 13.6492 7.44185 13.9718C7.19991 14.8992 7.46201 15.504 8.22814 15.7863ZM17.9056 21.5927C17.9056 22.1169 17.7241 22.5706 17.3612 22.9536C16.9983 23.3367 16.5346 23.5282 15.9701 23.5282C15.4056 23.5282 14.9418 23.3367 14.5789 22.9536C14.216 22.5706 14.0346 22.1169 14.0346 21.5927C14.0346 21.0685 14.2261 20.6149 14.6092 20.2318C14.9923 19.8488 15.4459 19.6572 15.9701 19.6572C16.4943 19.6572 16.9479 19.8488 17.331 20.2318C17.714 20.6149 17.9056 21.0685 17.9056 21.5927ZM14.0346 11.3105C14.0346 11.8347 13.8431 12.2883 13.46 12.6714C13.0769 13.0544 12.6233 13.246 12.0991 13.246C11.5749 13.246 11.1213 13.0544 10.7382 12.6714C10.3552 12.2883 10.1636 11.8347 10.1636 11.3105C10.1636 10.7863 10.3451 10.3327 10.708 9.94959C11.0709 9.56652 11.5346 9.37499 12.0991 9.37499C12.6636 9.37499 13.1273 9.56652 13.4902 9.94959C13.8531 10.3327 14.0346 10.7863 14.0346 11.3105Z" fill="#1967D2" fill-opacity="0.9"/>
</g>
<defs>
<clipPath id="clip0_163_8779">
<rect width="28.07" height="30" fill="white"/>
</clipPath>
</defs>
</svg>
